<?xml version="1.0" standalone="no"?>
<!DOCTYPE svg PUBLIC "-//W3C//DTD SVG 20010904//EN"
 "http://www.w3.org/TR/2001/REC-SVG-20010904/DTD/svg10.dtd">
<svg version="1.0" xmlns="http://www.w3.org/2000/svg"
 width="564.000000pt" height="574.000000pt" viewBox="0 0 564.000000 574.000000"
 preserveAspectRatio="xMidYMid meet">

<g transform="translate(0.000000,574.000000) scale(0.100000,-0.100000)"
fill="#000000" stroke="none">
<path d="M5226 3763 c-3 -54 -13 -169 -22 -256 -9 -87 -18 -184 -20 -215 -3
-31 -9 -79 -14 -107 -11 -59 -28 -186 -36 -269 -3 -33 -7 -63 -9 -66 -2 -3 -5
-37 -6 -76 -3 -116 -6 -117 -79 -35 -36 39 -79 100 -97 134 -32 61 -56 99 -79
122 -7 6 -23 34 -37 61 l-25 50 -146 -3 c-80 -1 -150 -5 -156 -8 -5 -3 -10
-19 -10 -35 0 -41 -38 -123 -117 -251 -38 -60 -75 -121 -83 -136 -19 -33 -26
-31 -53 9 -101 150 -149 244 -166 323 -24 112 -60 356 -65 452 -4 55 -8 109
-11 120 -27 135 -48 229 -50 232 -2 1 -16 -1 -31 -6 -27 -9 -28 -12 -25 -69 1
-32 3 -63 4 -69 1 -6 -33 -12 -78 -15 -68 -4 -80 -8 -83 -24 -6 -32 16 -41 96
-41 l77 0 3 -46 3 -46 -86 -5 c-47 -3 -89 -8 -92 -11 -2 -3 -2 -15 2 -26 5
-18 16 -21 98 -23 l92 -3 23 -90 c33 -123 39 -152 66 -292 18 -87 38 -152 70
-225 25 -56 46 -105 46 -108 0 -13 90 -158 107 -171 13 -12 20 -9 47 23 33 37
150 241 226 393 l45 90 98 -1 97 -1 39 -59 c21 -32 50 -81 66 -109 26 -47 83
-134 96 -145 3 -3 26 -34 51 -70 26 -36 63 -81 83 -100 35 -33 37 -34 50 -16
15 19 41 129 48 201 3 22 12 90 21 150 38 254 66 485 66 538 l0 57 103 0 c56
0 107 4 112 8 6 4 11 17 13 29 3 22 0 22 -105 25 l-108 3 3 40 c2 22 5 41 6
42 1 1 45 3 97 4 81 1 96 4 96 18 0 26 -17 31 -111 31 l-88 0 7 68 c7 74 -5
102 -45 102 -16 0 -19 -12 -24 -97z"/>
<path d="M4588 3613 c-31 -34 -50 -68 -41 -77 8 -8 123 -6 146 2 15 6 10 14
-31 55 l-48 47 -26 -27z"/>
<path d="M1426 3478 c-36 -73 -90 -176 -122 -228 -31 -52 -67 -119 -80 -148
l-24 -53 -111 2 c-91 2 -112 5 -116 18 -11 30 -33 76 -45 95 -37 56 -140 221
-182 290 -27 43 -52 84 -57 90 -5 6 -17 22 -28 35 l-18 25 -22 -72 c-51 -173
-61 -211 -71 -282 -5 -41 -17 -113 -26 -160 -9 -47 -20 -103 -24 -125 -32
-172 -53 -282 -56 -292 -2 -9 -26 -13 -71 -14 -37 -1 -72 -2 -78 -4 -5 -1 -15
-3 -21 -3 -17 -3 -24 -40 -9 -52 7 -6 17 -10 21 -9 5 1 42 1 81 0 l72 -1 -5
-32 c-13 -80 -5 -74 -94 -70 l-80 4 0 -30 c0 -37 12 -42 95 -42 l64 0 3 -77 3
-78 33 -3 c60 -6 62 0 62 217 1 231 20 354 115 716 12 50 29 118 35 153 7 34
16 62 20 62 8 0 101 -178 113 -215 4 -11 12 -29 19 -40 7 -11 32 -49 55 -85
22 -36 47 -71 55 -76 10 -8 276 -12 320 -5 3 0 12 18 18 39 7 20 57 129 112
242 l100 204 25 -29 c36 -45 81 -136 108 -223 108 -346 112 -362 120 -432 4
-30 13 -93 21 -139 16 -89 23 -166 24 -246 0 -67 11 -82 47 -69 26 9 28 15 33
69 l5 60 90 5 c88 5 90 6 90 30 0 25 -1 25 -100 30 l-100 5 -3 36 -3 36 65 7
c85 8 96 13 96 41 0 31 -19 36 -104 29 l-72 -6 -13 84 c-19 129 -40 211 -92
368 -68 206 -74 222 -135 344 -57 114 -71 136 -85 136 -4 0 -37 -60 -73 -132z"/>
<path d="M3251 3504 c-29 -15 -77 -50 -105 -79 -45 -44 -58 -67 -91 -156 -33
-91 -39 -120 -45 -224 -13 -230 -8 -269 39 -363 61 -121 131 -165 266 -166
121 -1 230 89 311 259 41 84 61 173 69 309 14 209 -42 345 -165 403 -36 18
-97 31 -165 38 -52 5 -67 2 -114 -21z m242 -90 c77 -50 103 -103 116 -239 9
-103 5 -148 -23 -273 -31 -140 -93 -235 -186 -286 -44 -24 -60 -28 -110 -24
-65 5 -138 43 -173 89 -49 68 -63 286 -26 437 19 80 27 102 74 191 42 80 138
138 230 140 30 1 55 -8 98 -35z"/>
<path d="M4261 3499 c-9 -26 -8 -37 4 -56 33 -49 101 -10 93 54 -3 25 -7 28
-44 31 -39 3 -42 1 -53 -29z"/>
<path d="M4921 3516 c-18 -22 -10 -70 12 -74 54 -10 105 39 77 73 -16 19 -74
20 -89 1z"/>
<path d="M2366 3513 c-77 -2 -145 -8 -151 -13 -7 -6 -11 -35 -9 -77 2 -38 5
-250 7 -473 l4 -404 24 -7 c37 -9 436 -18 504 -11 53 6 60 10 63 31 2 13 0 27
-5 32 -4 4 -117 9 -251 10 -133 1 -244 4 -246 8 -2 3 -7 95 -11 203 l-7 197
134 3 133 3 3 28 c3 27 3 27 -56 27 -32 0 -93 3 -135 6 l-77 7 0 178 0 177 33
8 c17 4 105 7 195 5 183 -3 222 2 222 28 0 35 -21 41 -130 39 -58 -1 -168 -4
-244 -5z"/>
<path d="M1420 2671 c-33 -9 -59 -55 -44 -78 18 -28 44 -27 75 3 31 30 36 53
17 72 -13 13 -12 13 -48 3z"/>
<path d="M760 2638 c-33 -35 -24 -88 15 -88 26 0 75 52 75 80 0 35 -59 41 -90
8z"/>
<path d="M1031 2561 c-12 -7 -8 -16 20 -45 18 -20 38 -36 45 -36 10 0 74 72
74 84 0 10 -124 6 -139 -3z"/>
</g>
</svg>
